<?xml version="1.0" standalone="no"?>
<!DOCTYPE svg PUBLIC "-//W3C//DTD SVG 20010904//EN"
 "http://www.w3.org/TR/2001/REC-SVG-20010904/DTD/svg10.dtd">
<svg version="1.0" xmlns="http://www.w3.org/2000/svg"
 width="1024.000000pt" height="1024.000000pt" viewBox="0 0 1024.000000 1024.000000"
 preserveAspectRatio="xMidYMid meet">
<metadata>
Created by potrace 1.11, written by Peter Selinger 2001-2013
</metadata>
<g transform="translate(0.000000,1024.000000) scale(0.100000,-0.100000)"
fill="#000000" stroke="none">
<path d="M1805 8684 c-201 -25 -341 -55 -514 -111 -95 -31 -122 -44 -157 -78
-49 -47 -68 -104 -61 -180 7 -70 28 -117 77 -164 72 -70 146 -79 325 -41 55
11 111 23 125 26 14 3 57 11 97 19 77 16 102 20 203 34 70 9 346 7 395 -3 201
-44 265 -108 265 -265 l0 -79 -30 4 c-16 2 -45 6 -62 9 -18 3 -58 8 -88 11
-30 3 -66 8 -80 11 -14 3 -117 6 -230 8 -178 3 -222 0 -335 -19 -169 -30 -283
-66 -408 -130 -254 -129 -434 -336 -483 -557 -15 -68 -15 -187 0 -252 65 -277
361 -498 733 -548 80 -11 341 -7 399 5 12 2 39 7 60 11 78 12 100 16 159 31
87 22 199 62 284 100 40 19 75 34 77 34 2 0 4 -25 4 -56 l0 -55 353 3 c394 4
423 9 491 73 50 47 69 96 68 176 -2 114 -35 167 -128 211 -53 25 -81 31 -171
36 l-108 7 -1 555 c-1 483 -3 564 -18 624 -47 194 -177 352 -371 448 -86 43
-276 97 -375 107 -82 9 -415 5 -495 -5z m470 -1268 c17 -3 55 -8 85 -11 30 -4
62 -8 70 -10 8 -1 40 -5 69 -9 30 -4 57 -9 60 -12 3 -3 6 -61 6 -129 l0 -123
-115 -61 c-165 -86 -338 -148 -465 -168 -16 -2 -41 -7 -55 -10 -14 -2 -82 -7
-151 -9 -103 -3 -141 0 -205 16 -93 24 -159 62 -192 110 -20 29 -23 43 -19 88
12 115 138 225 336 293 54 19 68 22 161 39 46 8 361 5 415 -4z"/>
<path d="M8808 8695 c-2 -1 -32 -5 -68 -8 -167 -14 -382 -120 -657 -323 l-73
-54 0 163 0 163 -387 -2 c-349 -1 -394 -3 -446 -19 -115 -37 -172 -118 -170
-240 2 -126 69 -197 217 -232 12 -2 77 -6 146 -8 69 -1 128 -3 133 -4 4 -1 7
-266 7 -590 l0 -589 -212 -5 c-230 -5 -274 -13 -334 -60 -49 -40 -67 -81 -70
-165 -6 -154 61 -235 217 -262 69 -12 1696 -10 1735 2 94 28 160 85 182 155
15 48 9 161 -11 200 -22 41 -80 88 -136 110 -40 15 -97 18 -458 21 l-413 3 0
367 0 367 133 106 c253 202 374 287 492 347 162 81 257 73 395 -33 153 -118
271 -118 381 -2 63 67 80 181 41 271 -69 154 -342 307 -574 320 -37 2 -69 2
-70 1z"/>
<path d="M5037 7034 c-1 -1 -15 -4 -32 -7 -79 -13 -182 -91 -220 -167 -99
-195 2 -420 212 -474 64 -17 226 -12 282 8 57 21 116 65 152 114 87 119 81
310 -13 412 -78 84 -144 111 -281 114 -53 1 -98 1 -100 0z"/>
<path d="M954 5388 c-3 -4 -13 -8 -23 -8 -24 0 -103 -61 -118 -91 -26 -50 -36
-85 -37 -131 -1 -27 2 -48 7 -48 4 0 6 -3 3 -8 -8 -13 28 -77 62 -110 18 -18
49 -40 70 -49 35 -16 307 -17 4255 -18 2319 -1 4217 2 4217 6 0 5 7 6 15 3 8
-4 15 -1 15 6 0 6 4 9 9 6 5 -3 29 10 53 29 51 38 88 107 93 169 3 49 -20 127
-46 155 -11 11 -19 25 -19 31 0 6 -4 9 -9 6 -5 -3 -15 1 -22 10 -7 8 -29 23
-48 32 -33 15 -362 16 -4254 17 -2320 1 -4220 -2 -4223 -7z"/>
<path d="M2594 4558 c-71 -8 -140 -37 -177 -76 -54 -58 -67 -204 -25 -290 37
-78 130 -117 288 -121 47 -1 87 -6 90 -11 10 -17 5 -590 -5 -588 -6 1 -40 21
-78 45 -92 60 -196 107 -298 137 -247 71 -543 67 -799 -9 -416 -124 -725 -476
-790 -900 -18 -118 -15 -392 5 -425 2 -3 6 -25 10 -49 9 -63 61 -206 102 -281
143 -265 385 -463 669 -550 195 -59 499 -75 679 -36 154 34 329 104 452 183
29 18 54 30 56 25 2 -4 3 -42 2 -85 l-1 -78 337 1 c367 2 405 7 483 59 107 71
122 261 28 358 -49 50 -120 74 -242 80 -52 3 -97 8 -100 10 -3 3 -5 590 -5
1306 l0 1302 -310 0 c-171 0 -337 -3 -371 -7z m-424 -1362 c359 -54 590 -294
603 -629 8 -188 -54 -348 -184 -476 -97 -96 -197 -151 -339 -187 -107 -27
-344 -25 -450 4 -320 86 -512 326 -512 638 0 179 59 321 187 449 115 116 258
183 425 202 30 3 56 6 57 7 5 4 172 -2 213 -8z"/>
<path d="M4929 3696 c-2 -2 -29 -6 -59 -9 -246 -26 -519 -149 -705 -319 -198
-179 -311 -374 -361 -623 -31 -156 -21 -370 25 -540 103 -379 451 -691 881
-791 67 -15 79 -17 190 -33 63 -9 470 -7 520 2 14 3 59 8 100 11 297 25 679
149 786 256 88 87 83 221 -12 315 -87 88 -147 89 -467 9 -329 -82 -444 -99
-672 -99 -224 0 -346 20 -481 80 -147 65 -275 189 -330 320 l-14 35 1020 0
1021 0 -2 153 c-1 138 -18 304 -34 346 -4 9 -9 26 -11 39 -7 35 -62 169 -90
221 -101 180 -277 355 -469 463 -111 63 -283 124 -400 143 -16 3 -46 8 -65 11
-40 7 -365 15 -371 10z m392 -524 c232 -62 396 -187 469 -357 11 -26 20 -51
20 -56 0 -5 -294 -9 -730 -9 -577 0 -730 3 -730 13 0 37 77 163 135 222 54 56
195 137 291 169 148 49 398 57 545 18z"/>
<path d="M6890 3633 c-187 -19 -279 -109 -268 -262 12 -158 104 -228 313 -235
l84 -3 179 -359 c99 -197 286 -576 418 -841 l238 -483 261 0 261 0 248 503
c137 276 323 651 413 832 89 182 164 334 166 339 1 4 45 10 96 12 159 6 241
41 288 122 25 41 28 57 28 132 0 72 -4 92 -25 130 -31 56 -106 96 -200 108
-36 4 -245 7 -465 7 -431 -1 -469 -5 -551 -58 -53 -34 -88 -113 -86 -197 2
-80 11 -106 51 -153 53 -59 165 -96 280 -92 23 1 41 -1 41 -4 0 -11 -524
-1061 -530 -1061 -3 0 -68 124 -145 276 -316 622 -395 779 -395 784 0 3 27 6
61 7 196 7 303 111 286 276 -10 97 -31 137 -90 171 -76 45 -117 49 -537 50
-217 1 -406 0 -420 -1z"/>
</g>
</svg>
